<?xml version="1.0" encoding="utf-8"?>
<!-- Generator: Adobe Illustrator 24.1.0, SVG Export Plug-In . SVG Version: 6.00 Build 0)  -->
<svg version="1.1" id="Capa_1" xmlns="http://www.w3.org/2000/svg" xmlns:xlink="http://www.w3.org/1999/xlink" x="0px" y="0px"
	 viewBox="0 0 200 172" style="enable-background:new 0 0 200 172;" xml:space="preserve">
<g>
	<g>
		<path d="M46.36,166.74c1.24,0,2.49-0.06,3.73,0.01c6.92,0.36,13.84,0.84,20.77,1.09c3.99,0.15,4.75-0.6,4.43-4.65
			c-0.77-9.85-1.74-19.68-2.65-29.52c-0.99-10.68-1.86-21.38-3.09-32.03c-0.27-2.36-1.38-5-2.94-6.78
			C57.98,85.01,49.1,75.39,40.3,65.69c-0.64-0.71-1.28-1.44-1.99-2.07c-3.41-3.02-5.14-2.83-7.67,0.86
			c-7.82,11.4-15.58,22.85-23.48,34.2c-1.82,2.62-2.33,5.15-1.85,8.34c2.49,16.38,4.74,32.79,7.04,49.2
			c0.12,0.84-0.08,1.73-0.13,2.6c-0.31,0.07-0.63,0.14-0.94,0.21c-0.42-0.93-1.05-1.82-1.24-2.8c-3.37-17.08-6.74-34.17-9.94-51.28
			c-0.3-1.58,0.07-3.7,0.96-5.02c9.79-14.56,19.79-28.98,29.62-43.52c1.52-2.25,3.36-2.87,5.93-3.47
			c6.22-1.44,10.07,1.04,13.81,5.67c5.21,6.45,11.1,12.34,16.59,18.57c1.27,1.44,2.47,1.89,4.4,1.7c10.38-0.98,20.77-1.78,31.6-2.68
			c-0.57,5.26-1.12,10.29-1.72,15.79c1.6-0.09,3.01-0.17,4.77-0.27c0.63-6.05,1.25-11.92,1.87-17.8
			c1.13-10.67,2.08-21.36,3.51-31.98c0.36-2.64,1.86-5.37,3.52-7.55c2.94-3.88,6.69-7.16,9.57-11.08c2.99-4.05,2.19-9.12-1.34-13
			c-0.69,3.06-1.2,6.17-2.12,9.15c-1.46,4.71-5.12,6.95-9.44,6.11c-4.51-0.88-7.25-4.42-7.15-9.13c0.05-2.42,0.01-4.84,0.01-7.21
			c-5.28,3.92-7.13,9.74-3.39,14.93c8,11.11,6.69,22.93,4.15,35.11c-0.92,4.41-1.52,8.89-2.26,13.34c-0.31,0.01-0.63,0.03-0.94,0.04
			c-0.46-1.86-0.92-3.72-1.47-5.93C93.23,67.14,85.91,67.58,78.6,68c-3.41,0.19-6.82,0.42-10.23,0.47c-0.95,0.02-1.9-0.51-2.86-0.79
			c0.03-0.36,0.07-0.72,0.1-1.08c2.95-0.42,5.9-0.84,9.15-1.3c-0.45-0.6-0.66-0.93-0.91-1.22c-3.23-3.78-2.82-6.57,1.48-9.02
			c2.02-1.15,4.18-2.06,6.54-3.21c-3.76-8.5-7.38-16.97-11.25-25.33c-1.52-3.28-2.74-6.38-1.27-10.01c0.29-0.7-0.06-1.9-0.51-2.62
			c-1.56-2.53-3.2-5.04-5.04-7.37c-0.52-0.66-2.09-1.2-2.72-0.88c-0.97,0.49-2.19,1.77-2.17,2.69c0.07,2.96,0.5,5.94,1.15,8.83
			c0.22,0.99,1.35,2.12,2.35,2.55c2.82,1.23,4.54,3.14,5.68,6.01c2,5.03,4.39,9.9,6.57,14.86c0.44,1.01,0.71,2.09,1.06,3.15
			c-0.29,0.21-0.57,0.42-0.86,0.63c-0.83-0.89-1.85-1.66-2.47-2.68c-2.46-4.1-4.93-8.21-7.13-12.45c-1.53-2.96-3.47-5.28-6.66-6.45
			c-2.04-0.75-2.87-2.26-3.06-4.39c-0.35-3.91-0.84-7.81-1.39-11.71c-0.29-2.09,0.3-3.33,2.4-4.16C66.21-1.24,63.59-1.38,69,6.15
			c0.93,1.3,1.66,2.76,2.7,3.95c2.29,2.63,3.01,5.41,1.82,8.79c-0.37,1.06-0.2,2.55,0.26,3.62c3.74,8.68,7.64,17.29,11.42,25.96
			c0.69,1.58,1.48,2.19,3.35,1.99c5.41-0.6,7.38,1.32,7.4,6.82c0.01,1.67,0,3.34,0,4.99c5.09,0.61,5.23,0.48,5.65-4.21
			c0.41-4.55,0.66-9.13,1.41-13.63c0.67-4.04-0.39-7.57-2.15-11.02c-1.49-2.93-3.14-5.79-4.73-8.68c-1.74-3.15-2.55-6.69-0.76-9.77
			c2.59-4.44,5.84-8.52,9.04-12.56c0.67-0.85,2.64-1.45,3.57-1.07c0.79,0.32,1.29,2.21,1.3,3.4c0.03,3.93-0.12,7.86-0.39,11.78
			c-0.18,2.64,1.13,4,3.45,4.59c2.5,0.63,4.1-0.78,4.47-2.96c0.76-4.47,1.06-9.02,1.66-13.52c0.17-1.26,0.42-2.9,1.27-3.54
			c0.63-0.48,2.33,0.24,3.45,0.67c0.98,0.38,1.84,1.07,2.71,1.68c11.86,8.21,13.59,17.53,4.14,28.35
			c-7.29,8.34-9.73,17.88-10.3,28.81c3.61-0.3,7.2-1.03,10.72-0.78c6.13,0.44,10.09-2.08,12.56-7.46c0.3-0.67,0.96-1.18,1.23-1.86
			c2.62-6.69,8.17-7.92,14.45-7.58c1.22,0.07,2.75,0.65,3.55,1.52c12.01,13.11,23.93,26.29,35.81,39.53
			c0.77,0.86,1.32,2.26,1.33,3.42c0.25,22.95,0.38,45.91,0.61,68.86c0.03,3.2-2.1,3.61-4.38,3.86c-8.27,0.91-16.55,1.73-24.82,2.59
			c-22.28,2.3-44.55,4.6-66.83,6.88c-8.81,0.9-17.62,2.45-26.42,2.44c-8.47-0.01-16.93-1.64-25.39-2.63c-2-0.23-3.96-0.78-5.94-1.18
			C46.26,167.71,46.31,167.22,46.36,166.74z M182.27,85.24c-1.17-1.64-1.74-2.6-2.47-3.44c-2.1-2.4-4.26-4.74-6.4-7.11
			c-6.64-7.33-13.27-14.66-19.92-21.97c-2.76-3.03-3.22-2.98-5.63,0.48c-1.13,1.62-2.24,3.25-3.63,5.27
			c2.24-0.14,3.98-0.61,5.55-0.27c2.08,0.45,4.45,1.06,5.96,2.41c4.13,3.72,4.46,11.93,0.74,16.02c-1.17,1.29-3.13,2.31-4.86,2.57
			c-4.73,0.7-9.53,1.06-14.31,1.29c-5.39,0.27-10.57,0.87-14.43,5.25c-0.42,0.48-1.2,0.64-2.58,1.35c0.82-2.19,1.36-3.64,2-5.33
			c-1.84,0.23-3.41,0.42-5.18,0.64c-0.28,2.77-0.55,5.43-0.85,8.33C138.35,88.89,159.93,87.09,182.27,85.24z M117.95,74.58
			c11.7-0.98,22.74-1.89,33.77-2.88c0.93-0.08,2.29-0.45,2.62-1.11c1.69-3.35-1.65-8.18-5.42-7.97c-3.19,0.18-6.37,0.47-9.55,0.75
			c-6.76,0.59-13.52,1.2-20.39,1.81C118.63,68.4,118.31,71.3,117.95,74.58z M95.85,92.49c-0.77-2.02-1.53-3.55-1.94-5.17
			c-0.82-3.26-2.71-3.49-5.36-2.34c0.32,1.73,0.6,3.29,0.89,4.84c-0.36,0.33-0.72,0.67-1.08,1c-2.39-8.09-7.83-5.48-13.22-4.79
			c2.2,2.45,4.05,4.62,6.04,6.65c0.5,0.51,1.47,0.83,2.2,0.79C87.41,93.23,91.42,92.86,95.85,92.49z M76.12,59.42
			c2.52,5.62,3.13,5.86,9.24,4.19c0.52-2.61,1.04-5.21,1.77-8.83C82.95,56.54,79.64,57.94,76.12,59.42z M161.05,136.14
			c4.79-0.32,4.68-0.31,4.52-5.06c-0.15-4.42-3.37-2.51-5.39-2.62c-4.36-0.25-2.57,3.15-2.78,5.22
			C157.08,136.77,159.21,136.42,161.05,136.14z M161.29,116.36c-3.04-0.52-4.65,0.36-4.35,3.79c0.22,2.49,0.13,4.51,3.71,4.21
			c4.53-0.38,4.54-0.24,4.59-3.96C165.27,117.58,164.94,115.38,161.29,116.36z M178.12,131.47c0.18-2.02,0.19-4.03-3.37-3.73
			c-4.46,0.37-4.59,0.29-4.5,4.45c0.04,1.86-0.16,3.6,2.76,3.43C178.13,135.33,178.2,135.43,178.12,131.47z M174.51,116.11
			c-4.47,0.06-4.44,0.06-4.45,3.66c-0.01,2.31-0.22,4.4,3.34,4.13c4.47-0.33,4.43-0.16,4.53-3.99
			C178.01,117.09,177.5,115.21,174.51,116.11z"/>
		<path d="M14.96,107.27c-1.31,1.14-2.14,1.87-2.98,2.6c-0.77-0.99-2.04-1.93-2.16-3c-0.09-0.82,1.26-1.8,1.97-2.7
			C12.68,105.04,13.57,105.92,14.96,107.27z"/>
		<path d="M58.36,102.32c1.37-1.12,2.23-1.83,3.09-2.53c0.75,1.04,1.95,2.03,2.08,3.14c0.09,0.76-1.33,1.69-2.07,2.55
			C60.59,104.6,59.72,103.71,58.36,102.32z"/>
		<path d="M17.31,157.36c1.36-1.03,2.23-1.7,3.1-2.36c0.72,1.04,1.92,2.03,2,3.12c0.06,0.79-1.34,1.7-2.09,2.55
			C19.48,159.74,18.63,158.81,17.31,157.36z"/>
		<path d="M64.69,160.01c1.27-1.26,2.06-2.04,2.86-2.83c0.8,0.98,2.07,1.88,2.23,2.96c0.13,0.8-1.18,1.81-1.85,2.73
			C67.02,162.06,66.1,161.25,64.69,160.01z"/>
	</g>
</g>
</svg>
